M48
;DRILL file {Pcbnew (2013-07-07 BZR 4022)-stable} date 2014/09/09 2:27:36
;FORMAT={-:-/ absolute / metric / decimal}
FMAT,2
METRIC,TZ
T1C0.635
T2C0.700
T3C0.800
T4C0.813
T5C0.850
T6C1.000
T7C1.200
T8C3.000
%
G90
G05
M71
T1
X8.4Y36.8
X11.725Y69.8
X19.6Y37.875
X20.325Y69.8
X20.6Y41.6
X24.1Y38.
X24.725Y68.6
X25.025Y59.
X25.3Y33.5
X28.Y35.4
X29.925Y69.8
X30.025Y67.
X30.2Y33.6
X30.525Y60.7
X30.525Y59.3
X30.525Y57.9
X31.3Y38.3
X32.Y33.6
X32.7Y38.3
X34.4Y38.8
X34.5Y27.6
X36.125Y34.85
X37.125Y73.7
X37.7Y26.6
X38.55Y33.55
X38.725Y58.4
X39.625Y66.1
X40.Y25.4
X40.2Y36.7
X40.525Y56.3
X41.025Y62.8
X41.2Y38.9
X41.625Y66.2
X41.825Y56.7
X42.6Y25.4
X42.725Y61.5
X42.925Y65.1
X43.925Y61.1
X44.225Y65.2
X45.125Y61.1
X45.225Y66.2
X45.525Y33.9
X46.525Y58.8
X46.825Y56.
X50.225Y69.
X50.625Y62.
X53.325Y65.2
X54.9Y33.9
X55.025Y65.4
X55.6Y26.1
X55.7Y19.1
X61.1Y19.1
X63.9Y34.1
X64.9Y75.
X65.8Y39.6
X66.5Y66.2
X67.825Y58.4
X67.825Y56.5
X67.9Y64.
X67.9Y62.2
X69.325Y63.7
X70.8Y18.8
X70.9Y62.
X73.7Y39.2
X74.9Y17.8
X75.Y39.2
X77.2Y39.1
X77.625Y60.35
X81.1Y68.2
X81.4Y35.3
X81.425Y56.15
X81.5Y58.2
X81.8Y18.3
X82.4Y75.2
X84.3Y35.3
X87.3Y18.3
X89.7Y58.
X91.625Y75.9
T2
X51.275Y56.15
X52.775Y56.15
X54.275Y56.15
X55.775Y56.15
X57.275Y56.15
X58.775Y56.15
T3
X6.4Y9.2
X6.7Y6.5
X7.3Y11.7
X8.3Y4.3
X9.4Y13.5
X9.55Y74.35
X10.6Y3.1
X12.Y14.2
X13.4Y3.1
X14.05Y74.35
X14.6Y13.5
X15.7Y4.3
X16.7Y11.7
X17.3Y6.5
X17.6Y9.2
X19.05Y74.35
X19.5Y87.5
X19.9Y9.2
X20.2Y6.5
X20.8Y11.7
X21.5Y87.5
X21.8Y4.3
X22.9Y13.5
X23.55Y74.35
X24.1Y3.1
X25.5Y14.2
X26.Y87.5
X26.9Y3.1
X28.Y87.5
X28.1Y13.5
X28.55Y74.35
X29.2Y4.3
X30.2Y11.7
X30.8Y6.5
X31.1Y9.2
X33.05Y74.35
X37.6Y9.2
X37.9Y6.5
X38.5Y11.7
X39.5Y4.3
X40.6Y13.5
X41.8Y3.1
X43.2Y14.2
X44.6Y3.1
X45.8Y13.5
X46.9Y4.3
X47.9Y11.7
X48.5Y6.5
X48.8Y9.2
X51.2Y9.2
X51.5Y6.5
X52.1Y11.7
X53.1Y4.3
X54.2Y13.5
X54.5Y87.5
X55.4Y3.1
X56.5Y87.5
X56.8Y14.2
X58.2Y3.1
X59.4Y13.5
X60.5Y4.3
X61.Y87.5
X61.5Y11.7
X62.1Y6.5
X62.4Y9.2
X63.Y87.5
X68.9Y9.2
X69.2Y6.5
X69.8Y11.7
X70.8Y4.3
X71.9Y13.5
X72.Y87.5
X73.1Y3.1
X74.Y87.5
X74.5Y14.2
X75.9Y3.1
X77.1Y13.5
X78.2Y4.3
X78.5Y87.5
X79.2Y11.7
X79.8Y6.5
X80.1Y9.2
X80.5Y87.5
X82.4Y9.2
X82.7Y6.5
X83.3Y11.7
X84.3Y4.3
X85.4Y13.5
X86.6Y3.1
X88.Y14.2
X89.4Y3.1
X90.6Y13.5
X91.7Y4.3
X92.7Y11.7
X93.3Y6.5
X93.6Y9.2
T4
X43.836Y29.316
X43.836Y21.696
X46.376Y29.316
X46.376Y21.696
X48.916Y29.316
X48.916Y21.696
X51.456Y29.316
X51.456Y21.696
T5
X12.525Y66.8
X12.525Y55.3
T6
X1.5Y88.54
X1.5Y86.
X1.5Y83.46
X2.23Y68.58
X2.23Y66.04
X2.23Y63.5
X2.23Y60.96
X2.23Y58.42
X2.23Y34.58
X2.23Y32.04
X2.23Y29.5
X2.23Y26.96
X2.23Y24.42
X4.77Y68.58
X4.77Y66.04
X4.77Y63.5
X4.77Y60.96
X4.77Y58.42
X4.77Y34.58
X4.77Y32.04
X4.77Y29.5
X4.77Y26.96
X4.77Y24.42
X23.516Y29.316
X23.516Y21.696
X26.056Y29.316
X26.056Y21.696
X28.596Y29.316
X28.596Y21.696
X31.136Y29.316
X31.136Y21.696
X33.676Y29.316
X33.676Y21.696
X35.Y19.14
X35.Y16.6
X35.Y14.06
X36.216Y29.316
X36.216Y21.696
X36.5Y88.54
X36.5Y86.
X36.5Y83.46
X38.756Y29.316
X38.756Y21.696
X41.296Y29.316
X41.296Y21.696
X44.105Y40.67
X44.105Y38.13
X44.405Y74.77
X44.405Y72.23
X46.645Y40.67
X46.645Y38.13
X46.945Y74.77
X46.945Y72.23
X49.185Y40.67
X49.185Y38.13
X49.485Y74.77
X49.485Y72.23
X51.725Y40.67
X51.725Y38.13
X52.025Y74.77
X52.025Y72.23
X53.996Y29.316
X53.996Y21.696
X54.265Y40.67
X54.265Y38.13
X54.565Y74.77
X54.565Y72.23
X56.536Y29.316
X56.536Y21.696
X56.805Y40.67
X56.805Y38.13
X57.105Y74.77
X57.105Y72.23
X59.076Y29.316
X59.076Y21.696
X59.345Y40.67
X59.345Y38.13
X59.645Y74.77
X59.645Y72.23
X61.616Y29.316
X61.616Y21.696
X64.156Y29.316
X64.156Y21.696
X66.3Y19.14
X66.3Y16.6
X66.3Y14.06
X66.696Y29.316
X66.696Y21.696
X69.236Y29.316
X69.236Y21.696
X71.776Y29.316
X71.776Y21.696
X74.316Y29.316
X74.316Y21.696
X76.856Y29.316
X76.856Y21.696
X79.396Y29.316
X79.396Y21.696
X81.936Y29.316
X81.936Y21.696
X84.476Y29.316
X84.476Y21.696
X87.016Y29.316
X87.016Y21.696
X89.556Y29.316
X89.556Y21.696
X92.096Y29.316
X92.096Y21.696
X95.23Y68.58
X95.23Y66.04
X95.23Y63.5
X95.23Y60.96
X95.23Y58.42
X95.23Y34.58
X95.23Y32.04
X95.23Y29.5
X95.23Y26.96
X95.23Y24.42
X97.77Y68.58
X97.77Y66.04
X97.77Y63.5
X97.77Y60.96
X97.77Y58.42
X97.77Y34.58
X97.77Y32.04
X97.77Y29.5
X97.77Y26.96
X97.77Y24.42
X98.5Y88.54
X98.5Y86.
X98.5Y83.46
T7
X8.3Y71.85
X15.3Y71.85
X17.8Y71.85
X24.8Y71.85
X27.3Y71.85
X34.3Y71.85
T8
X3.5Y73.5
X3.5Y39.5
X3.5Y3.5
X96.5Y73.5
X96.5Y39.5
X96.5Y3.5
T3
X7.9Y32.G85X7.9Y34.2
G05
X11.6Y36.35G85X13.8Y36.35
G05
X11.6Y30.1G85X13.8Y30.1
G05
T0
M30
